Coordinates
version=1
nRows=38
nColumns=12
inDegrees=yes

Units are S.I. units (second, meters, Newtons, ...)
Angles are in degrees

endheader
time	SC_y	SC_z	SC_x	AC_y	AC_z	AC_x	GH_y	GH_z	GH_yy	EL_x	PS_y
       0.0              -11.73        -0.0031          40.44          40.05         -12.46        -0.6516          121.8         -1.387         -76.82          116.6           82.2
  0.004128              -11.73       0.001832          40.43          40.05         -12.46        -0.6519          121.8         -1.382         -76.79          116.6          82.19
  0.008256              -11.74       0.007071          40.43          40.05         -12.46        -0.6521          121.8         -1.377         -76.76          116.6          82.19
   0.01238              -11.75        0.01264          40.43          40.06         -12.45        -0.6524          121.7         -1.372         -76.73          116.6          82.18
   0.01651              -11.75        0.01857          40.43          40.06         -12.45        -0.6527          121.7         -1.367          -76.7          116.6          82.17
   0.02064              -11.76         0.0249          40.42          40.06         -12.45         -0.653          121.6         -1.361         -76.67          116.6          82.17
   0.02477              -11.77        0.03165          40.42          40.07         -12.45        -0.6533          121.6         -1.354         -76.64          116.5          82.16
    0.0289              -11.78        0.03887          40.42          40.07         -12.44        -0.6537          121.5         -1.348          -76.6          116.5          82.15
   0.03302              -11.79        0.04661          40.41          40.08         -12.44        -0.6541          121.4          -1.34         -76.56          116.5          82.14
   0.03715               -11.8         0.0549          40.41          40.08         -12.44        -0.6545          121.4         -1.333         -76.52          116.5          82.13
   0.04128              -11.81        0.06381          40.41          40.09         -12.44        -0.6549          121.3         -1.324         -76.47          116.5          82.12
   0.04541              -11.82         0.0734           40.4          40.09         -12.43        -0.6554          121.2         -1.315         -76.42          116.5          82.11
   0.04954              -11.83        0.08373           40.4           40.1         -12.43        -0.6559          121.1         -1.306         -76.37          116.4          82.09
   0.05366              -11.84         0.0949          40.39           40.1         -12.43        -0.6564          121.1         -1.295         -76.31          116.4          82.08
   0.05779              -11.86          0.107          40.39          40.11         -12.42         -0.657          121.0         -1.284         -76.25          116.4          82.07
   0.06192              -11.87         0.1201          40.38          40.12         -12.42        -0.6576          120.9         -1.272         -76.18          116.4          82.05
   0.06605              -11.89         0.1343          40.38          40.13         -12.41        -0.6583          120.7         -1.258         -76.11          116.3          82.03
   0.07018              -11.91         0.1498          40.37          40.13         -12.41        -0.6591          120.6         -1.244         -76.03          116.3          82.01
    0.0743              -11.93         0.1668          40.36          40.14          -12.4        -0.6599          120.5         -1.228         -75.94          116.3          81.99
   0.07843              -11.95         0.1853          40.35          40.15         -12.39        -0.6608          120.3          -1.21         -75.85          116.2          81.97
   0.08256              -11.98         0.2057          40.34          40.17         -12.39        -0.6618          120.2         -1.191         -75.74          116.2          81.94
   0.08669               -12.0         0.2281          40.33          40.18         -12.38        -0.6629          120.0          -1.17         -75.63          116.1          81.92
   0.09082              -12.03         0.2529          40.32          40.19         -12.37        -0.6641          119.8         -1.147          -75.5          116.1          81.89
   0.09494              -12.07         0.2803          40.31          40.21         -12.36        -0.6654          119.6         -1.121         -75.36          116.0          81.85
   0.09907               -12.1         0.3108           40.3          40.23         -12.35        -0.6669          119.3         -1.093          -75.2          116.0          81.82
    0.1032              -12.14         0.3448          40.28          40.24         -12.34        -0.6686          119.1         -1.061         -75.03          115.9          81.77
    0.1073              -12.19         0.3829          40.27          40.27         -12.33        -0.6704          118.8         -1.025         -74.83          115.8          81.73
    0.1115              -12.24         0.4258          40.25          40.29         -12.31        -0.6725          118.4        -0.9851         -74.61          115.7          81.67
    0.1156               -12.3         0.4743          40.23          40.32          -12.3        -0.6748          118.0        -0.9397         -74.36          115.6          81.61
    0.1197              -12.36         0.5293           40.2          40.35         -12.28        -0.6775          117.6        -0.8882         -74.08          115.5          81.55
    0.1238              -12.44         0.5921          40.17          40.38         -12.26        -0.6806          117.1        -0.8294         -73.76          115.4          81.47
     0.128              -12.52         0.6641          40.14          40.43         -12.23        -0.6841          116.5        -0.7619         -73.39          115.2          81.38
    0.1321              -12.62         0.7473           40.1          40.47          -12.2        -0.6881          115.8         -0.684         -72.96          115.1          81.28
    0.1362              -12.74          0.844          40.06          40.53         -12.17        -0.6928          115.1        -0.5934         -72.46          114.9          81.16
    0.1404              -12.87         0.9571          40.01          40.59         -12.13        -0.6983          114.2        -0.4875         -71.88          114.6          81.02
    0.1445              -13.03           1.09          39.95          40.67         -12.09        -0.7048          113.1        -0.3626          -71.2          114.4          80.86
    0.1486              -13.22          1.249          39.88          40.76         -12.03        -0.7125          111.8        -0.2141         -70.38          114.0          80.66
    0.1527              -13.45          1.439           39.8          40.86         -11.97        -0.7218          110.3       -0.03622         -69.41          113.7          80.43
